<mxfile host="app.diagrams.net" modified="2023-12-05T14:26:05.557Z" agent="Mozilla/5.0 (Windows NT 10.0; Win64; x64; rv:120.0) Gecko/20100101 Firefox/120.0" etag="fFeqNBtvTS2_mPV-dtWa" version="22.1.5" type="device">
  <diagram name="Page-1" id="2YBvvXClWsGukQMizWep">
    <mxGraphModel dx="850" dy="757" grid="1" gridSize="10" guides="1" tooltips="1" connect="1" arrows="1" fold="1" page="1" pageScale="1" pageWidth="850" pageHeight="1100" math="0" shadow="0">
      <root>
        <mxCell id="0" />
        <mxCell id="1" parent="0" />
        <mxCell id="QFnC96fmeQrWTmHDwa4i-30" value="CKB platform" style="shape=umlLifeline;perimeter=lifelinePerimeter;whiteSpace=wrap;html=1;container=0;dropTarget=0;collapsible=0;recursiveResize=0;outlineConnect=0;portConstraint=eastwest;newEdgeStyle={&quot;edgeStyle&quot;:&quot;elbowEdgeStyle&quot;,&quot;elbow&quot;:&quot;vertical&quot;,&quot;curved&quot;:0,&quot;rounded&quot;:0};" vertex="1" parent="1">
          <mxGeometry x="570" y="370" width="100" height="490" as="geometry" />
        </mxCell>
        <mxCell id="QFnC96fmeQrWTmHDwa4i-31" value="" style="html=1;points=[];perimeter=orthogonalPerimeter;outlineConnect=0;targetShapes=umlLifeline;portConstraint=eastwest;newEdgeStyle={&quot;edgeStyle&quot;:&quot;elbowEdgeStyle&quot;,&quot;elbow&quot;:&quot;vertical&quot;,&quot;curved&quot;:0,&quot;rounded&quot;:0};" vertex="1" parent="QFnC96fmeQrWTmHDwa4i-30">
          <mxGeometry x="45" y="70" width="10" height="30" as="geometry" />
        </mxCell>
        <mxCell id="QFnC96fmeQrWTmHDwa4i-32" value="" style="html=1;points=[];perimeter=orthogonalPerimeter;outlineConnect=0;targetShapes=umlLifeline;portConstraint=eastwest;newEdgeStyle={&quot;edgeStyle&quot;:&quot;elbowEdgeStyle&quot;,&quot;elbow&quot;:&quot;vertical&quot;,&quot;curved&quot;:0,&quot;rounded&quot;:0};" vertex="1" parent="QFnC96fmeQrWTmHDwa4i-30">
          <mxGeometry x="45" y="260" width="10" height="220" as="geometry" />
        </mxCell>
        <mxCell id="QFnC96fmeQrWTmHDwa4i-33" value="" style="html=1;points=[[0,0,0,0,5],[0,1,0,0,-5],[1,0,0,0,5],[1,1,0,0,-5]];perimeter=orthogonalPerimeter;outlineConnect=0;targetShapes=umlLifeline;portConstraint=eastwest;newEdgeStyle={&quot;curved&quot;:0,&quot;rounded&quot;:0};" vertex="1" parent="QFnC96fmeQrWTmHDwa4i-30">
          <mxGeometry x="50" y="280" width="10" height="20" as="geometry" />
        </mxCell>
        <mxCell id="QFnC96fmeQrWTmHDwa4i-34" value="&lt;font style=&quot;font-size: 9px;&quot;&gt;6 : validateTournamentInfos()&lt;/font&gt;" style="html=1;align=left;spacingLeft=2;endArrow=block;rounded=0;edgeStyle=orthogonalEdgeStyle;curved=0;rounded=0;" edge="1" parent="QFnC96fmeQrWTmHDwa4i-30" target="QFnC96fmeQrWTmHDwa4i-33">
          <mxGeometry relative="1" as="geometry">
            <mxPoint x="55" y="270.0344827586208" as="sourcePoint" />
            <Array as="points">
              <mxPoint x="80" y="270" />
              <mxPoint x="80" y="280" />
            </Array>
          </mxGeometry>
        </mxCell>
        <mxCell id="QFnC96fmeQrWTmHDwa4i-35" value="&lt;font style=&quot;font-size: 9px;&quot;&gt;Educator&lt;/font&gt;" style="shape=umlActor;verticalLabelPosition=bottom;verticalAlign=top;html=1;outlineConnect=0;" vertex="1" parent="1">
          <mxGeometry x="410" y="370" width="20" height="40" as="geometry" />
        </mxCell>
        <mxCell id="QFnC96fmeQrWTmHDwa4i-36" value="" style="endArrow=none;dashed=1;html=1;rounded=0;" edge="1" parent="1" source="QFnC96fmeQrWTmHDwa4i-38">
          <mxGeometry width="50" height="50" relative="1" as="geometry">
            <mxPoint x="420" y="680" as="sourcePoint" />
            <mxPoint x="420" y="430" as="targetPoint" />
          </mxGeometry>
        </mxCell>
        <mxCell id="QFnC96fmeQrWTmHDwa4i-37" value="" style="endArrow=none;dashed=1;html=1;rounded=0;" edge="1" parent="1" target="QFnC96fmeQrWTmHDwa4i-38">
          <mxGeometry width="50" height="50" relative="1" as="geometry">
            <mxPoint x="420" y="860" as="sourcePoint" />
            <mxPoint x="419.99999999999994" y="831.3" as="targetPoint" />
          </mxGeometry>
        </mxCell>
        <mxCell id="QFnC96fmeQrWTmHDwa4i-38" value="" style="html=1;points=[];perimeter=orthogonalPerimeter;outlineConnect=0;targetShapes=umlLifeline;portConstraint=eastwest;newEdgeStyle={&quot;edgeStyle&quot;:&quot;elbowEdgeStyle&quot;,&quot;elbow&quot;:&quot;vertical&quot;,&quot;curved&quot;:0,&quot;rounded&quot;:0};" vertex="1" parent="1">
          <mxGeometry x="415" y="440" width="10" height="410" as="geometry" />
        </mxCell>
        <mxCell id="QFnC96fmeQrWTmHDwa4i-39" value="&lt;font style=&quot;font-size: 9px;&quot;&gt;1 : click(createTournamentButton)&lt;/font&gt;" style="html=1;verticalAlign=bottom;endArrow=block;edgeStyle=elbowEdgeStyle;elbow=vertical;curved=0;rounded=0;" edge="1" parent="1" source="QFnC96fmeQrWTmHDwa4i-38" target="QFnC96fmeQrWTmHDwa4i-31">
          <mxGeometry relative="1" as="geometry">
            <mxPoint x="460" y="440" as="sourcePoint" />
            <Array as="points">
              <mxPoint x="540" y="440" />
            </Array>
            <mxPoint x="625" y="440" as="targetPoint" />
          </mxGeometry>
        </mxCell>
        <mxCell id="QFnC96fmeQrWTmHDwa4i-40" value="&lt;font style=&quot;font-size: 9px;&quot;&gt;2 : showPage(tournamentCreationPage)&lt;/font&gt;" style="html=1;verticalAlign=bottom;endArrow=openThin;dashed=1;endSize=8;edgeStyle=elbowEdgeStyle;elbow=vertical;curved=0;rounded=0;endFill=0;" edge="1" parent="1" source="QFnC96fmeQrWTmHDwa4i-31" target="QFnC96fmeQrWTmHDwa4i-38">
          <mxGeometry relative="1" as="geometry">
            <mxPoint x="460" y="470" as="targetPoint" />
            <Array as="points">
              <mxPoint x="515" y="470" />
            </Array>
            <mxPoint x="590" y="470" as="sourcePoint" />
          </mxGeometry>
        </mxCell>
        <mxCell id="QFnC96fmeQrWTmHDwa4i-41" value="" style="html=1;points=[[0,0,0,0,5],[0,1,0,0,-5],[1,0,0,0,5],[1,1,0,0,-5]];perimeter=orthogonalPerimeter;outlineConnect=0;targetShapes=umlLifeline;portConstraint=eastwest;newEdgeStyle={&quot;curved&quot;:0,&quot;rounded&quot;:0};" vertex="1" parent="1">
          <mxGeometry x="420" y="500" width="10" height="20" as="geometry" />
        </mxCell>
        <mxCell id="QFnC96fmeQrWTmHDwa4i-42" value="&lt;font style=&quot;font-size: 9px;&quot;&gt;5 : send(tournamentInfos)&lt;/font&gt;" style="html=1;verticalAlign=bottom;endArrow=block;edgeStyle=elbowEdgeStyle;elbow=vertical;curved=0;rounded=0;" edge="1" parent="1">
          <mxGeometry relative="1" as="geometry">
            <mxPoint x="424.9999999999998" y="630" as="sourcePoint" />
            <Array as="points">
              <mxPoint x="540" y="630" />
            </Array>
            <mxPoint x="615" y="630" as="targetPoint" />
          </mxGeometry>
        </mxCell>
        <mxCell id="QFnC96fmeQrWTmHDwa4i-43" value="&lt;font style=&quot;font-size: 9px;&quot;&gt;7 : displayOutcome(confirmation)&lt;/font&gt;" style="html=1;verticalAlign=bottom;endArrow=openThin;dashed=1;endSize=8;edgeStyle=elbowEdgeStyle;elbow=vertical;curved=0;rounded=0;endFill=0;" edge="1" parent="1">
          <mxGeometry relative="1" as="geometry">
            <mxPoint x="424.9999999999998" y="710" as="targetPoint" />
            <Array as="points">
              <mxPoint x="520" y="710" />
            </Array>
            <mxPoint x="615" y="710" as="sourcePoint" />
          </mxGeometry>
        </mxCell>
        <mxCell id="QFnC96fmeQrWTmHDwa4i-44" value="&lt;b&gt;alt &lt;/b&gt;outcome == true" style="shape=umlFrame;whiteSpace=wrap;html=1;pointerEvents=0;width=120;height=15;fontSize=11;" vertex="1" parent="1">
          <mxGeometry x="350" y="680" width="320" height="180" as="geometry" />
        </mxCell>
        <mxCell id="QFnC96fmeQrWTmHDwa4i-45" value="[then]" style="text;html=1;strokeColor=none;fillColor=none;align=center;verticalAlign=middle;whiteSpace=wrap;rounded=0;fontSize=10;" vertex="1" parent="1">
          <mxGeometry x="360" y="700" width="35" height="10" as="geometry" />
        </mxCell>
        <mxCell id="QFnC96fmeQrWTmHDwa4i-46" value="" style="endArrow=none;dashed=1;html=1;rounded=0;exitX=0.001;exitY=0.409;exitDx=0;exitDy=0;exitPerimeter=0;strokeWidth=2;" edge="1" parent="1">
          <mxGeometry width="50" height="50" relative="1" as="geometry">
            <mxPoint x="350" y="770.75" as="sourcePoint" />
            <mxPoint x="670" y="770" as="targetPoint" />
          </mxGeometry>
        </mxCell>
        <mxCell id="QFnC96fmeQrWTmHDwa4i-47" value="[else]" style="text;html=1;strokeColor=none;fillColor=none;align=center;verticalAlign=middle;whiteSpace=wrap;rounded=0;fontSize=10;" vertex="1" parent="1">
          <mxGeometry x="360" y="780" width="35" height="10" as="geometry" />
        </mxCell>
        <mxCell id="QFnC96fmeQrWTmHDwa4i-48" value="&lt;font style=&quot;font-size: 9px;&quot;&gt;10 : displayOutcome(error)&lt;/font&gt;" style="html=1;verticalAlign=bottom;endArrow=openThin;dashed=1;endSize=8;edgeStyle=elbowEdgeStyle;elbow=vertical;curved=0;rounded=0;endFill=0;" edge="1" parent="1" source="QFnC96fmeQrWTmHDwa4i-32" target="QFnC96fmeQrWTmHDwa4i-38">
          <mxGeometry relative="1" as="geometry">
            <mxPoint x="424.9999999999998" y="810" as="targetPoint" />
            <Array as="points">
              <mxPoint x="520" y="800" />
            </Array>
            <mxPoint x="615" y="810" as="sourcePoint" />
          </mxGeometry>
        </mxCell>
        <mxCell id="QFnC96fmeQrWTmHDwa4i-49" value="&lt;font style=&quot;font-size: 9px;&quot;&gt;3 : fillSignUpForm(data)&lt;/font&gt;" style="html=1;align=left;spacingLeft=2;endArrow=block;rounded=0;edgeStyle=orthogonalEdgeStyle;curved=0;rounded=0;" edge="1" parent="1" source="QFnC96fmeQrWTmHDwa4i-38" target="QFnC96fmeQrWTmHDwa4i-41">
          <mxGeometry relative="1" as="geometry">
            <mxPoint x="430" y="490" as="sourcePoint" />
            <Array as="points">
              <mxPoint x="450" y="490" />
              <mxPoint x="450" y="500" />
            </Array>
            <mxPoint x="435" y="520" as="targetPoint" />
          </mxGeometry>
        </mxCell>
        <mxCell id="QFnC96fmeQrWTmHDwa4i-50" value="&lt;p style=&quot;line-height: 120%;&quot;&gt;&lt;font style=&quot;font-size: 10px;&quot;&gt;&lt;b&gt;loop&lt;/b&gt;: outcome == false&lt;/font&gt;&lt;/p&gt;" style="shape=umlFrame;whiteSpace=wrap;html=1;pointerEvents=0;width=70;height=40;verticalAlign=middle;horizontal=1;labelPosition=center;verticalLabelPosition=middle;align=center;" vertex="1" parent="1">
          <mxGeometry x="330" y="450" width="450" height="420" as="geometry" />
        </mxCell>
        <mxCell id="QFnC96fmeQrWTmHDwa4i-51" value="" style="html=1;points=[[0,0,0,0,5],[0,1,0,0,-5],[1,0,0,0,5],[1,1,0,0,-5]];perimeter=orthogonalPerimeter;outlineConnect=0;targetShapes=umlLifeline;portConstraint=eastwest;newEdgeStyle={&quot;curved&quot;:0,&quot;rounded&quot;:0};" vertex="1" parent="1">
          <mxGeometry x="420" y="600" width="10" height="20" as="geometry" />
        </mxCell>
        <mxCell id="QFnC96fmeQrWTmHDwa4i-52" value="&lt;font style=&quot;font-size: 9px;&quot;&gt;4 : click(confirmationButton)&lt;/font&gt;" style="html=1;align=left;spacingLeft=2;endArrow=block;rounded=0;edgeStyle=orthogonalEdgeStyle;curved=0;rounded=0;" edge="1" parent="1" target="QFnC96fmeQrWTmHDwa4i-51">
          <mxGeometry relative="1" as="geometry">
            <mxPoint x="425" y="590" as="sourcePoint" />
            <Array as="points">
              <mxPoint x="450" y="590" />
              <mxPoint x="450" y="600" />
            </Array>
            <mxPoint x="435" y="620" as="targetPoint" />
          </mxGeometry>
        </mxCell>
        <mxCell id="QFnC96fmeQrWTmHDwa4i-53" value="&lt;b&gt;ref&lt;/b&gt;" style="shape=umlFrame;whiteSpace=wrap;html=1;pointerEvents=0;width=40;height=15;fillStyle=auto;fillColor=default;gradientColor=none;swimlaneFillColor=default;" vertex="1" parent="1">
          <mxGeometry x="380" y="530" width="270" height="50" as="geometry" />
        </mxCell>
        <mxCell id="QFnC96fmeQrWTmHDwa4i-54" value="Badge creation" style="text;html=1;strokeColor=none;fillColor=none;align=center;verticalAlign=middle;whiteSpace=wrap;rounded=0;fontStyle=1" vertex="1" parent="1">
          <mxGeometry x="470" y="540" width="90" height="30" as="geometry" />
        </mxCell>
        <mxCell id="QFnC96fmeQrWTmHDwa4i-55" value="&lt;font style=&quot;font-size: 9px;&quot;&gt;8 : click(continueButton)&lt;/font&gt;" style="html=1;verticalAlign=bottom;endArrow=block;edgeStyle=elbowEdgeStyle;elbow=vertical;curved=0;rounded=0;" edge="1" parent="1" source="QFnC96fmeQrWTmHDwa4i-38" target="QFnC96fmeQrWTmHDwa4i-32">
          <mxGeometry relative="1" as="geometry">
            <mxPoint x="424.9999999999998" y="730" as="sourcePoint" />
            <Array as="points">
              <mxPoint x="540" y="730" />
            </Array>
            <mxPoint x="615" y="730" as="targetPoint" />
          </mxGeometry>
        </mxCell>
        <mxCell id="QFnC96fmeQrWTmHDwa4i-56" value="&lt;font style=&quot;font-size: 9px;&quot;&gt;9 : showPage(riepilogativeTournamentPage)&lt;/font&gt;" style="html=1;verticalAlign=bottom;endArrow=openThin;dashed=1;endSize=8;edgeStyle=elbowEdgeStyle;elbow=vertical;curved=0;rounded=0;endFill=0;" edge="1" parent="1" source="QFnC96fmeQrWTmHDwa4i-32" target="QFnC96fmeQrWTmHDwa4i-38">
          <mxGeometry relative="1" as="geometry">
            <mxPoint x="424.9999999999998" y="750" as="targetPoint" />
            <Array as="points">
              <mxPoint x="520" y="750" />
            </Array>
            <mxPoint x="615" y="750" as="sourcePoint" />
          </mxGeometry>
        </mxCell>
        <mxCell id="QFnC96fmeQrWTmHDwa4i-57" value="&lt;font style=&quot;font-size: 9px;&quot;&gt;11 : click(continueButton)&lt;/font&gt;" style="html=1;verticalAlign=bottom;endArrow=block;edgeStyle=elbowEdgeStyle;elbow=vertical;curved=0;rounded=0;" edge="1" parent="1" source="QFnC96fmeQrWTmHDwa4i-38" target="QFnC96fmeQrWTmHDwa4i-32">
          <mxGeometry relative="1" as="geometry">
            <mxPoint x="425" y="820" as="sourcePoint" />
            <Array as="points">
              <mxPoint x="540" y="820" />
            </Array>
            <mxPoint x="615" y="820" as="targetPoint" />
          </mxGeometry>
        </mxCell>
        <mxCell id="QFnC96fmeQrWTmHDwa4i-58" value="&lt;font style=&quot;font-size: 9px;&quot;&gt;12 : showPage(tournamentCreationPage)&lt;/font&gt;" style="html=1;verticalAlign=bottom;endArrow=openThin;dashed=1;endSize=8;edgeStyle=elbowEdgeStyle;elbow=vertical;curved=0;rounded=0;endFill=0;" edge="1" parent="1" source="QFnC96fmeQrWTmHDwa4i-32" target="QFnC96fmeQrWTmHDwa4i-38">
          <mxGeometry relative="1" as="geometry">
            <mxPoint x="425" y="840" as="targetPoint" />
            <Array as="points">
              <mxPoint x="520" y="840" />
            </Array>
            <mxPoint x="615" y="840" as="sourcePoint" />
          </mxGeometry>
        </mxCell>
      </root>
    </mxGraphModel>
  </diagram>
</mxfile>
